<svg width="25" height="24" viewBox="0 0 25 24" fill="none" xmlns="http://www.w3.org/2000/svg">
<path d="M12.8965 21C14.6765 21 16.4166 20.4722 17.8966 19.4832C19.3767 18.4943 20.5302 17.0887 21.2114 15.4442C21.8926 13.7996 22.0708 11.99 21.7236 10.2442C21.3763 8.49836 20.5191 6.89472 19.2604 5.63604C18.0018 4.37737 16.3981 3.5202 14.6523 3.17294C12.9065 2.82567 11.0969 3.0039 9.45233 3.68509C7.8078 4.36628 6.40219 5.51983 5.41326 6.99987C4.42433 8.47991 3.89648 10.22 3.89648 12C3.89648 13.488 4.25648 14.891 4.89648 16.127L3.89648 21L8.76948 20C10.0055 20.64 11.4095 21 12.8965 21Z" stroke="white" stroke-linecap="round" stroke-linejoin="round"/>
</svg>
