<svg width="22" height="22" viewBox="0 0 22 22" fill="none" xmlns="http://www.w3.org/2000/svg">
<g clip-path="url(#clip0_403_266)">
<path d="M20 12.4966H12.5V19.9966C12.5 20.3944 12.342 20.7759 12.0607 21.0572C11.7794 21.3385 11.3978 21.4966 11 21.4966C10.6022 21.4966 10.2206 21.3385 9.93934 21.0572C9.65804 20.7759 9.5 20.3944 9.5 19.9966V12.4966H2C1.60218 12.4966 1.22064 12.3385 0.93934 12.0572C0.658036 11.7759 0.5 11.3944 0.5 10.9966C0.5 10.5988 0.658036 10.2172 0.93934 9.93592C1.22064 9.65462 1.60218 9.49658 2 9.49658H9.5V1.99658C9.5 1.59876 9.65804 1.21723 9.93934 0.935921C10.2206 0.654617 10.6022 0.496582 11 0.496582C11.3978 0.496582 11.7794 0.654617 12.0607 0.935921C12.342 1.21723 12.5 1.59876 12.5 1.99658V9.49658H20C20.3978 9.49658 20.7794 9.65462 21.0607 9.93592C21.342 10.2172 21.5 10.5988 21.5 10.9966C21.5 11.3944 21.342 11.7759 21.0607 12.0572C20.7794 12.3385 20.3978 12.4966 20 12.4966Z" fill="#FAFAFA"/>
</g>
<defs>
<clipPath id="clip0_403_266">
<rect width="22" height="22" rx="5.375" fill="white"/>
</clipPath>
</defs>
</svg>
