<svg width="24" height="25" viewBox="0 0 24 25" fill="none" xmlns="http://www.w3.org/2000/svg">
<path d="M8.0625 2.99658C8.24021 2.99658 8.41047 3.06721 8.53613 3.19287C8.66179 3.31853 8.73242 3.4888 8.73242 3.6665C8.73242 3.84421 8.66179 4.01448 8.53613 4.14014C8.41047 4.26579 8.24021 4.33643 8.0625 4.33643H5.25C4.98015 4.33643 4.72108 4.44347 4.53027 4.63428C4.33946 4.82509 4.23242 5.08416 4.23242 5.354V18.854C4.23242 19.1238 4.33946 19.3829 4.53027 19.5737C4.72108 19.7645 4.98015 19.8716 5.25 19.8716H18.75C19.0198 19.8716 19.2789 19.7645 19.4697 19.5737C19.6605 19.3829 19.7676 19.1238 19.7676 18.854V5.354C19.7676 5.08416 19.6605 4.82509 19.4697 4.63428C19.2789 4.44347 19.0198 4.33643 18.75 4.33643H13.6875C13.4177 4.33643 13.1586 4.44347 12.9678 4.63428C12.777 4.82509 12.6699 5.08416 12.6699 5.354V13.2983L15.4629 10.5044C15.5887 10.3786 15.7596 10.3081 15.9375 10.3081C16.1154 10.3081 16.2863 10.3786 16.4121 10.5044C16.5379 10.6302 16.6084 10.8011 16.6084 10.979C16.6084 11.1569 16.5379 11.3278 16.4121 11.4536L12.4746 15.3911C12.4124 15.4535 12.3382 15.5029 12.2568 15.5366C12.1754 15.5704 12.0881 15.5874 12 15.5874C11.9119 15.5874 11.8246 15.5704 11.7432 15.5366C11.6618 15.5029 11.5876 15.4535 11.5254 15.3911L7.58789 11.4536C7.52561 11.3913 7.47609 11.3172 7.44238 11.2358C7.40868 11.1545 7.3916 11.0671 7.3916 10.979C7.3916 10.8909 7.40868 10.8035 7.44238 10.7222C7.47609 10.6408 7.52561 10.5667 7.58789 10.5044C7.65018 10.4421 7.72428 10.3926 7.80566 10.3589C7.88704 10.3252 7.97442 10.3081 8.0625 10.3081C8.15058 10.3081 8.23796 10.3252 8.31934 10.3589C8.40072 10.3926 8.47482 10.4421 8.53711 10.5044L11.3301 13.2983V5.354C11.3301 4.72874 11.5784 4.12914 12.0205 3.68701C12.4626 3.24489 13.0622 2.99658 13.6875 2.99658H18.75C19.3753 2.99658 19.9749 3.24489 20.417 3.68701C20.8591 4.12914 21.1074 4.72874 21.1074 5.354V18.854C21.1074 19.4793 20.8591 20.0789 20.417 20.521C19.9749 20.9631 19.3753 21.2114 18.75 21.2114H5.25C4.62474 21.2114 4.02513 20.9631 3.58301 20.521C3.14088 20.0789 2.89258 19.4793 2.89258 18.854V5.354C2.89258 4.72874 3.14088 4.12914 3.58301 3.68701C4.02513 3.24489 4.62474 2.99658 5.25 2.99658H8.0625Z" fill="white" stroke="white" stroke-width="0.215094"/>
</svg>
