<svg width="10" height="10" viewBox="0 0 10 10" fill="none" xmlns="http://www.w3.org/2000/svg">
<g clip-path="url(#clip0_346_206)">
<path d="M4.875 0C3.91082 0 2.96829 0.285914 2.1666 0.821586C1.36491 1.35726 0.740067 2.11863 0.371089 3.00942C0.00211226 3.90021 -0.094429 4.88041 0.093674 5.82607C0.281777 6.77172 0.746076 7.64036 1.42786 8.32215C2.10964 9.00393 2.97828 9.46823 3.92394 9.65633C4.86959 9.84443 5.84979 9.74789 6.74058 9.37891C7.63137 9.00994 8.39274 8.38509 8.92842 7.5834C9.46409 6.78171 9.75 5.83918 9.75 4.875C9.74864 3.58249 9.23458 2.34331 8.32064 1.42936C7.4067 0.515418 6.16751 0.00136492 4.875 0ZM4.875 9C4.05915 9 3.26163 8.75807 2.58327 8.30481C1.90492 7.85155 1.37621 7.20731 1.064 6.45357C0.751788 5.69982 0.670099 4.87042 0.829263 4.07025C0.988427 3.27008 1.3813 2.53508 1.95819 1.95818C2.53508 1.38129 3.27008 0.988425 4.07025 0.829261C4.87043 0.670097 5.69983 0.751785 6.45357 1.064C7.20732 1.37621 7.85155 1.90492 8.30481 2.58327C8.75808 3.26163 9 4.05915 9 4.875C8.99876 5.96864 8.56377 7.01713 7.79045 7.79045C7.01713 8.56376 5.96864 8.99876 4.875 9ZM3.375 4.875C3.375 5.18982 3.47406 5.49667 3.65814 5.75207C3.84222 6.00746 4.10199 6.19847 4.40066 6.29802C4.69933 6.39758 5.02175 6.40064 5.32225 6.30677C5.62276 6.2129 5.88611 6.02686 6.075 5.775C6.13474 5.69543 6.22363 5.64286 6.32213 5.62884C6.42064 5.61482 6.52067 5.6405 6.60024 5.70023C6.6798 5.75997 6.73238 5.84887 6.7464 5.94737C6.76042 6.04587 6.73474 6.1459 6.675 6.22547C6.39159 6.60314 5.99655 6.88208 5.54581 7.02279C5.09508 7.16349 4.6115 7.15882 4.16356 7.00944C3.71563 6.86007 3.32604 6.57355 3.04997 6.19048C2.77391 5.8074 2.62535 5.34719 2.62535 4.875C2.62535 4.40281 2.77391 3.9426 3.04997 3.55952C3.32604 3.17645 3.71563 2.88993 4.16356 2.74056C4.6115 2.59118 5.09508 2.58651 5.54581 2.72721C5.99655 2.86792 6.39159 3.14686 6.675 3.52453C6.70458 3.56393 6.72611 3.60876 6.73836 3.65648C6.75061 3.7042 6.75334 3.75386 6.7464 3.80263C6.73946 3.85141 6.72298 3.89833 6.6979 3.94074C6.67282 3.98314 6.63963 4.02019 6.60024 4.04977C6.56084 4.07934 6.516 4.10087 6.46829 4.11312C6.42057 4.12537 6.37091 4.1281 6.32213 4.12116C6.27336 4.11422 6.22643 4.09774 6.18403 4.07266C6.14163 4.04758 6.10458 4.0144 6.075 3.975C5.88611 3.72314 5.62276 3.5371 5.32225 3.44323C5.02175 3.34936 4.69933 3.35242 4.40066 3.45198C4.10199 3.55153 3.84222 3.74254 3.65814 3.99793C3.47406 4.25333 3.375 4.56018 3.375 4.875Z" fill="white"/>
</g>
<defs>
<clipPath id="clip0_346_206">
<rect width="10" height="10" fill="white"/>
</clipPath>
</defs>
</svg>
