<svg width="24" height="23" viewBox="0 0 24 23" fill="none" xmlns="http://www.w3.org/2000/svg">
<g clip-path="url(#clip0_272_232)">
<path d="M12 14.7363C13.5878 14.7363 15.1755 14.9292 16.7627 15.3154C18.349 15.7014 19.9377 16.2792 21.5283 17.0518V17.0527C22.1601 17.3657 22.6554 17.8016 23.0234 18.3613H23.0244C23.3929 18.9192 23.5723 19.509 23.5723 20.1387V22.5713L0.427734 22.5703V20.1387C0.427737 19.5876 0.56536 19.0674 0.845703 18.5723L0.974609 18.3613C1.34392 17.8011 1.83903 17.3647 2.46973 17.0518C4.06159 16.278 5.65096 15.7003 7.2373 15.3154C8.82571 14.9292 10.4133 14.7363 12 14.7363ZM12 15.6172C10.4393 15.6172 8.89278 15.8057 7.36133 16.1836C5.8316 16.5596 4.34747 17.1013 2.91016 17.8076L2.90332 17.8115L2.89648 17.8145C2.41562 18.0737 2.02304 18.4004 1.73438 18.7998L1.7334 18.8008C1.44125 19.2066 1.28614 19.6555 1.28613 20.1387V21.6885H22.7139V20.1367C22.7138 19.6545 22.5585 19.2063 22.2666 18.8008L22.2656 18.7988L22.1523 18.6533C21.8768 18.3202 21.5242 18.0423 21.1045 17.8154L21.0967 17.8115L21.0898 17.8076L20.5479 17.5508C19.2801 16.9689 17.9771 16.5126 16.6387 16.1836C15.1083 15.8057 13.5618 15.6172 12 15.6172ZM12 0.427734C13.2984 0.427734 14.3997 0.890945 15.3271 1.83008C16.2551 2.7721 16.7148 3.89263 16.7148 5.21484C16.7148 6.53586 16.256 7.65577 15.3281 8.59668C14.4005 9.5373 13.2985 10.0008 12 10.002L11.7588 9.99609C10.5657 9.94163 9.54269 9.47969 8.67188 8.59668C7.74286 7.65463 7.28421 6.53512 7.28516 5.21582V5.21484C7.2852 3.89263 7.74492 2.7721 8.67285 1.83008L8.67188 1.8291C9.59934 0.889973 10.7016 0.427734 12 0.427734ZM11.999 1.31055C10.9403 1.31078 10.0243 1.69762 9.27441 2.45801C8.52453 3.21842 8.14483 4.14553 8.14355 5.21484L8.14746 5.41406C8.19207 6.39905 8.57035 7.25793 9.27441 7.9707C10.0252 8.73075 10.9413 9.11871 11.999 9.12012H12C13.0594 9.12012 13.9765 8.73135 14.7275 7.96973C15.4781 7.20843 15.8576 6.28239 15.8564 5.21484L15.8525 5.0166C15.8081 4.0315 15.4304 3.17197 14.7275 2.45801C13.9773 1.69599 13.0595 1.30924 11.999 1.31055Z" fill="white" stroke="white" stroke-width="0.856164"/>
</g>
<defs>
<clipPath id="clip0_272_232">
<rect width="24" height="23" fill="white"/>
</clipPath>
</defs>
</svg>
