<svg width="25" height="25" viewBox="0 0 25 25" fill="none" xmlns="http://www.w3.org/2000/svg">
<path d="M17.0086 15.2075H16.06L15.7238 14.8834C16.9412 13.4714 17.6102 11.6688 17.6089 9.80446C17.6089 8.26089 17.1512 6.75197 16.2936 5.46854C15.4361 4.1851 14.2172 3.18478 12.7911 2.59408C11.365 2.00338 9.7958 1.84883 8.28189 2.14996C6.76797 2.4511 5.37735 3.1944 4.28588 4.28588C3.1944 5.37735 2.4511 6.76797 2.14996 8.28189C1.84883 9.7958 2.00338 11.365 2.59408 12.7911C3.18478 14.2172 4.1851 15.4361 5.46854 16.2936C6.75197 17.1512 8.26089 17.6089 9.80446 17.6089C11.7376 17.6089 13.5146 16.9005 14.8834 15.7238L15.2075 16.06V17.0086L21.211 23L23 21.211L17.0086 15.2075ZM9.80446 15.2075C6.81475 15.2075 4.40138 12.7942 4.40138 9.80446C4.40138 6.81475 6.81475 4.40138 9.80446 4.40138C12.7942 4.40138 15.2075 6.81475 15.2075 9.80446C15.2075 12.7942 12.7942 15.2075 9.80446 15.2075Z" fill="white"/>
</svg>
